<?xml version="1.0" standalone="no"?>
<!DOCTYPE svg PUBLIC "-//W3C//DTD SVG 20010904//EN"
 "http://www.w3.org/TR/2001/REC-SVG-20010904/DTD/svg10.dtd">
<svg version="1.0" xmlns="http://www.w3.org/2000/svg"
 width="512.000000pt" height="512.000000pt" viewBox="0 0 512.000000 512.000000"
 preserveAspectRatio="xMidYMid meet">
<metadata>
Created by potrace 1.11, written by Peter Selinger 2001-2013
</metadata>
<g transform="translate(0.000000,512.000000) scale(0.100000,-0.100000)"
fill="#000000" stroke="none">
<path d="M702 4729 c-156 -26 -285 -158 -311 -319 -15 -92 -15 -3624 0 -3705
30 -161 154 -285 313 -314 84 -15 3628 -15 3711 0 161 30 285 154 314 313 15
84 15 3628 0 3712 -29 159 -153 283 -314 313 -72 14 -3632 13 -3713 0z m3648
-764 l0 -385 -1790 0 -1790 0 0 385 0 385 1790 0 1790 0 0 -385z m0 -1915 l0
-1280 -1790 0 -1790 0 0 1280 0 1280 1790 0 1790 0 0 -1280z"/>
<path d="M2820 3970 l0 -130 125 0 125 0 0 130 0 130 -125 0 -125 0 0 -130z"/>
<path d="M3330 3970 l0 -130 125 0 125 0 0 130 0 130 -125 0 -125 0 0 -130z"/>
<path d="M3840 3970 l0 -130 130 0 131 0 -3 128 -3 127 -127 3 -128 3 0 -131z"/>
<path d="M2625 2836 c-3 -6 -89 -351 -193 -768 l-189 -756 121 -31 c67 -16
124 -27 127 -23 7 8 379 1495 379 1516 0 18 -240 79 -245 62z"/>
<path d="M1655 2350 l-300 -300 302 -302 303 -303 90 90 90 90 -212 212 -213
213 210 210 210 210 -90 90 -90 90 -300 -300z"/>
<path d="M3075 2560 l-90 -90 210 -210 210 -210 -213 -213 -212 -212 90 -90
90 -90 303 303 302 302 -300 300 -300 300 -90 -90z"/>
</g>
</svg>
